HIERARCHY
ROOT Hips
{
	OFFSET 0.000000 0.000000 0.000000
	CHANNELS 6 Xposition Yposition Zposition Zrotation Yrotation Xrotation 
	JOINT LHipJoint
	{
		OFFSET 0.000000 0.000000 0.000000
		CHANNELS 3 Zrotation Yrotation Xrotation
		JOINT LeftUpLeg
		{
			OFFSET 1.363060 -1.794630 0.839290
			CHANNELS 3 Zrotation Yrotation Xrotation
			JOINT LeftLeg
			{
				OFFSET 2.448110 -6.726130 0.000000
				CHANNELS 3 Zrotation Yrotation Xrotation
				JOINT LeftFoot
				{
					OFFSET 2.562200 -7.039590 0.000000
					CHANNELS 3 Zrotation Yrotation Xrotation
					JOINT LeftToeBase
					{
						OFFSET 0.157640 -0.433110 2.322550
						CHANNELS 3 Zrotation Yrotation Xrotation
						End Site
						{
							OFFSET 0.000000 0.000000 0.000000
						}
					}
				}
			}
		}
	}
	JOINT RHipJoint
	{
		OFFSET 0.000000 0.000000 0.000000
		CHANNELS 3 Zrotation Yrotation Xrotation
		JOINT RightUpLeg
		{
			OFFSET -1.305520 -1.794630 0.839290
			CHANNELS 3 Zrotation Yrotation Xrotation
			JOINT RightLeg
			{
				OFFSET -2.542530 -6.985550 0.000000
				CHANNELS 3 Zrotation Yrotation Xrotation
				JOINT RightFoot
				{
					OFFSET -2.568260 -7.056230 0.000000
					CHANNELS 3 Zrotation Yrotation Xrotation
					JOINT RightToeBase
					{
						OFFSET -0.164730 -0.452590 2.363150
						CHANNELS 3 Zrotation Yrotation Xrotation
						End Site
						{
							OFFSET 0.000000 0.000000 0.000000
						}
					}
				}
			}
		}
	}
	JOINT LowerBack
	{
		OFFSET 0.000000 0.000000 0.000000
		CHANNELS 3 Zrotation Yrotation Xrotation
		JOINT Spine
		{
			OFFSET 0.028270 2.035590 -0.193380
			CHANNELS 3 Zrotation Yrotation Xrotation
			JOINT Spine1
			{
				OFFSET 0.056720 2.048850 -0.042750
				CHANNELS 3 Zrotation Yrotation Xrotation
				JOINT Neck
				{
					OFFSET 0.000000 0.000000 0.000000
					CHANNELS 3 Zrotation Yrotation Xrotation
					JOINT Neck1
					{
						OFFSET -0.054170 1.746240 0.172020
						CHANNELS 3 Zrotation Yrotation Xrotation
						JOINT Head
						{
							OFFSET 0.104070 1.761360 -0.123970
							CHANNELS 3 Zrotation Yrotation Xrotation
							End Site
							{
								OFFSET 0.000000 0.000000 0.000000
							}
						}
					}
				}
				JOINT LeftShoulder
				{
					OFFSET 0.000000 0.000000 0.000000
					CHANNELS 3 Zrotation Yrotation Xrotation
					JOINT LeftArm
					{
						OFFSET 3.362410 1.200890 -0.311210
						CHANNELS 3 Zrotation Yrotation Xrotation
						JOINT LeftForeArm
						{
							OFFSET 4.983000 -0.000000 -0.000000
							CHANNELS 3 Zrotation Yrotation Xrotation
							JOINT LeftHand
							{
								OFFSET 3.483560 -0.000000 -0.000000
								CHANNELS 3 Zrotation Yrotation Xrotation
								JOINT LeftFingerBase
								{
									OFFSET 0.000000 0.000000 0.000000
									CHANNELS 3 Zrotation Yrotation Xrotation
									JOINT LeftHandIndex1
									{
										OFFSET 0.715260 -0.000000 -0.000000
										CHANNELS 3 Zrotation Yrotation Xrotation
										End Site
										{
											OFFSET 0.000000 0.000000 0.000000
										}
									}
								}
								JOINT LThumb
								{
									OFFSET 0.000000 0.000000 0.000000
									CHANNELS 3 Zrotation Yrotation Xrotation
									End Site
									{
										OFFSET 0.000000 0.000000 0.000000
									}
								}
							}
						}
					}
				}
				JOINT RightShoulder
				{
					OFFSET 0.000000 0.000000 0.000000
					CHANNELS 3 Zrotation Yrotation Xrotation
					JOINT RightArm
					{
						OFFSET -3.136600 1.374050 -0.404650
						CHANNELS 3 Zrotation Yrotation Xrotation
						JOINT RightForeArm
						{
							OFFSET -5.241900 -0.000000 -0.000000
							CHANNELS 3 Zrotation Yrotation Xrotation
							JOINT RightHand
							{
								OFFSET -3.444170 -0.000000 -0.000000
								CHANNELS 3 Zrotation Yrotation Xrotation
								JOINT RightFingerBase
								{
									OFFSET 0.000000 0.000000 0.000000
									CHANNELS 3 Zrotation Yrotation Xrotation
									JOINT RightHandIndex1
									{
										OFFSET -0.622530 -0.000000 -0.000000
										CHANNELS 3 Zrotation Yrotation Xrotation
										End Site
										{
											OFFSET 0.000000 0.000000 0.000000
										}
									}
								}
								JOINT RThumb
								{
									OFFSET 0.000000 0.000000 0.000000
									CHANNELS 3 Zrotation Yrotation Xrotation
									End Site
									{
										OFFSET 0.000000 0.000000 0.000000
									}
								}
							}
						}
					}
				}
			}
		}
	}
}
MOTION
Frames: 5
Frame Time: 0.008333
-2.360184 16.506553 1.560836 -116.059898 79.800026 -102.513551 -10.507046 0.695451 3.061708 -21.050028 0.637398 -37.636380 -2.518643 -0.419817 20.062997 1.868348 6.550553 -13.622716 179.294400 0.000000 -12.091900 9.240815 -5.491612 -2.113856 11.319639 -19.418924 -12.448697 1.567384 -3.547242 45.674806 1.110380 23.521099 12.562294 7.074000 -0.000000 -78.891900 0.773999 0.270532 -1.734066 -0.567058 0.154812 -3.375843 -5.597670 0.170609 -0.328596 8.803633 -8.645185 -6.835234 -1.580620 -0.134197 0.242915 0.000000 0.000000 0.000000 1.668153 16.215991 0.223481 -58.988528 31.269521 21.152274 -179.980329 -87.766636 179.986200 7.493890 1.517828 0.096560 -0.157484 0.103672 -0.000000 0.000000 0.000000 0.000000 0.000000 0.000000 0.000000 4.395933 -1.519198 -0.299584 49.896970 33.466931 20.100462 179.673210 84.616400 -179.991126 1.096291 7.475250 0.078953 -0.020445 -0.540179 -0.000000 0.000000 0.000000 0.000000 0.000000 0.000000 0.000000 
-2.196161 16.411662 1.530206 -115.028140 79.897996 -101.626526 -10.459961 0.655687 3.205590 -20.819802 -0.588799 -38.435800 -2.308716 -0.139695 23.575366 2.136499 7.462167 -15.280198 178.950600 0.000000 -16.093501 9.458994 -5.356373 -2.189146 10.421458 -19.546686 -14.174609 1.109673 -3.756559 49.806454 0.949856 22.626743 13.652065 7.295200 -0.000000 -80.082500 0.568989 0.237981 -1.852501 -0.618663 0.130546 -3.384055 -5.646171 0.147216 -0.271978 8.868424 -8.470989 -6.837923 -1.580473 -0.134039 0.241817 0.000000 0.000000 0.000000 1.280474 16.714119 0.284796 -58.653824 30.601494 21.139429 179.983575 -88.672751 179.985454 7.969948 1.786436 0.122215 -0.167966 0.095987 -0.000000 0.000000 0.000000 0.000000 0.000000 0.000000 0.000000 4.423915 -1.366939 -0.412272 49.907434 33.703168 19.499651 179.693647 84.711340 -179.990944 1.253739 7.771393 0.094003 -0.029658 -0.548156 -0.000000 0.000000 0.000000 0.000000 0.000000 0.000000 0.000000 
-2.040616 16.325281 1.496215 -114.200102 80.060924 -100.919482 -10.410174 0.614388 3.290583 -20.740305 -1.682799 -39.159829 -2.120231 0.128529 26.942220 2.383201 8.319669 -16.827603 178.584000 -0.000000 -18.872600 9.662631 -5.159291 -2.247885 9.536809 -19.353225 -15.972646 0.640919 -3.947219 53.898052 0.770483 20.749556 14.494875 7.073600 0.000000 -80.656200 0.369975 0.236422 -1.919116 -0.667868 0.138854 -3.383520 -5.690405 0.156545 -0.216996 8.844584 -8.256164 -6.871696 -1.586893 -0.133754 0.230481 0.000000 0.000000 0.000000 0.787774 17.256741 0.382925 -58.299198 29.401809 21.185444 179.937259 -89.821273 179.984514 8.465936 2.093017 0.153573 -0.178830 0.088748 -0.000000 0.000000 0.000000 0.000000 0.000000 0.000000 0.000000 4.369140 -1.154171 -0.544660 50.064103 33.706032 18.816031 179.720782 84.875504 -179.991236 1.360281 8.104103 0.106562 -0.038407 -0.556569 -0.000000 0.000000 0.000000 0.000000 0.000000 0.000000 0.000000 
-1.893929 16.249479 1.458343 -113.623091 80.277059 -100.445450 -10.358018 0.572804 3.317463 -20.806836 -2.639935 -39.711233 -1.958287 0.367011 29.970452 2.613914 9.152991 -18.261854 178.198800 -0.000000 -20.652000 9.848983 -4.902315 -2.291292 8.672626 -18.842541 -17.812292 0.172490 -4.121485 57.899136 0.564026 17.992573 14.998825 6.392700 -0.000000 -80.354600 0.179878 0.270957 -1.927513 -0.715028 0.184674 -3.374308 -5.732853 0.203648 -0.168735 8.738386 -8.010251 -6.934514 -1.601215 -0.133474 0.209377 0.000000 0.000000 0.000000 0.203674 17.810079 0.512226 -57.943010 27.692056 21.282991 -0.119468 -88.809127 -0.016601 8.958483 2.412975 0.188530 -0.189545 0.082462 -0.000000 0.000000 0.000000 0.000000 0.000000 0.000000 0.000000 4.246973 -0.889564 -0.688883 50.343508 33.456788 18.046549 179.754158 85.115194 -179.992179 1.385651 8.462507 0.113634 -0.045779 -0.565085 -0.000000 0.000000 0.000000 0.000000 0.000000 0.000000 0.000000 
-1.755970 16.185789 1.416225 -113.355077 80.528313 -100.263092 -10.305844 0.531410 3.291647 -20.995486 -3.467557 -40.030648 -1.826224 0.565137 32.533204 2.833786 9.976447 -19.593944 177.796000 0.000000 -21.708700 10.013481 -4.592284 -2.316524 7.845244 -18.025154 -19.667949 -0.284322 -4.280670 61.753379 0.320570 14.537031 15.105434 5.319500 -0.000000 -79.015700 0.009059 0.344278 -1.881288 -0.758871 0.269693 -3.358583 -5.775807 0.290223 -0.133394 8.557280 -7.738547 -7.019427 -1.624623 -0.133403 0.180481 0.000000 0.000000 0.000000 -0.460266 18.336176 0.663884 -57.598383 25.529726 21.421536 -0.186259 -87.259570 -0.017872 9.430071 2.719964 0.224685 -0.199826 0.077591 -0.000000 0.000000 0.000000 0.000000 0.000000 0.000000 0.000000 4.073523 -0.579434 -0.836108 50.718277 32.941611 17.194095 179.793028 85.442329 -179.993905 1.305923 8.834190 0.112226 -0.051019 -0.573210 -0.000000 0.000000 0.000000 0.000000 0.000000 0.000000 0.000000 
